# xmcd
#
# Track frame offsets: 
#        150
#        13612
#        30042
#        44905
#        63775
#        79300
#        94802
#        110545
#        128470
#        146235
#
# Disc length: 2359 seconds
#
# Revision: 2
# Processed by: cddbd v1.5.2PL0 Copyright (c) Steve Scherf et al.
# Submitted via: ExactAudioCopyFreeDBPlugin 1.0
#
DISCID=7e09350a
DTITLE=陳百強 - 痴心眼内藏
DYEAR=1987
DGENRE=Pop
TTITLE0=冰封的心
TTITLE1=神奇係我同你
TTITLE2=天生一對
TTITLE3=情人
TTITLE4=夢囈(音樂版)
TTITLE5=痴心眼内藏
TTITLE6=驅魔大法師
TTITLE7=夢囈
TTITLE8=約會
TTITLE9=冰封的心(Extended Version)
EXTD=YEAR: 1987
EXTT0=
EXTT1=
EXTT2=
EXTT3=
EXTT4=
EXTT5=
EXTT6=
EXTT7=
EXTT8=
EXTT9=
PLAYORDER=
